<?xml version="1.0" encoding="utf-8"?>
<!-- Generator: Adobe Illustrator 15.0.0, SVG Export Plug-In . SVG Version: 6.00 Build 0)  -->
<!DOCTYPE svg PUBLIC "-//W3C//DTD SVG 1.1//EN" "http://www.w3.org/Graphics/SVG/1.1/DTD/svg11.dtd">
<svg version="1.1" id="Layer_1" xmlns="http://www.w3.org/2000/svg" xmlns:xlink="http://www.w3.org/1999/xlink" x="0px" y="0px"
	 width="500px" height="500px" viewBox="0 0 500 500" enable-background="new 0 0 500 500" xml:space="preserve">
<g>
	<g>
		<g>
			<path fill="#FFFFFF" d="M164.984,37h-31.288c-6.192,0-11.469,1.417-15.496,4.303c-4.688,3.366-7.2,8.179-7.2,14.491v52.478
				c0,6.131,1.97,10.752,5.577,14.238C120.364,126.295,126,128,133.154,128h30.747c6.973,0,12.632-1.479,16.779-4.815
				c4.147-3.336,6.319-7.7,6.319-13.471V98h-26v12.705c0,3.427-1.908,5.295-5.033,5.295h-13.435c-3.368,0-5.532-1.807-5.532-5.114
				V90h50V56.334C187,43.411,179.53,37,164.984,37z M161,79h-24V55.072c0-3.606,1.804-5.41,4.93-5.41l14.449-0.09
				c2.886,0,4.621,1.774,4.621,5.32V79z"/>
			<path fill="#FFFFFF" d="M264.924,41.934C260.836,38.628,255.332,37,248.298,37h-30.657c-7.154,0-12.52,1.838-16.366,5.564
				c-3.606,3.548-5.275,8.36-5.275,14.492V69.77c0,9.859,4.494,15.84,13.752,17.943l29.12,6.673
				c4.148,0.961,6.128,4.147,6.128,9.557v6.762c0,3.307-1.631,5.295-4.997,5.295h-13.525c-3.065,0-4.478-2.107-4.478-5.655V99h-26
				v10.534c0,5.831,1.895,10.24,5.952,13.606c4.058,3.367,9.558,4.86,16.772,4.86h29.574c15.208,0,22.702-6.324,22.702-19.729
				V95.467c0-9.978-5.055-16.109-15.271-18.394l-27.324-6.222c-4.328-0.961-6.404-3.606-6.404-7.935v-8.476
				c0-3.305,1.562-5.441,4.929-5.441h13.615c3.065,0,4.456,2.226,4.456,5.712V66h26V55.613C271,49.783,269.01,45.24,264.924,41.934z
				"/>
			<polygon fill="#FFFFFF" points="197.083,7 195.731,7 121.343,7 111.334,7 21,7 21,41 37,41 37,24 58,24 58,111 40,111 40,128 
				102,128 102,111 85,111 85,24 111.334,24 121.343,24 195.731,24 197.083,24 281,24 281,7 			"/>
		</g>
		<g>
			<path fill="#FFFFFF" d="M316,7h-26v30h-9v15h9v56.271c0,13.405,6.989,19.729,21.417,19.729h18.482
				c7.035,0,12.737-1.479,16.825-4.815c4.088-3.336,6.275-7.7,6.275-13.471V97h-26v9.107c0,3.427-1.818,4.893-4.765,4.893h-1.353
				c-3.365,0-5.048-1.639-5.048-4.884L315.744,52H353V37h-37V7z"/>
			<polygon fill="#FFFFFF" points="362.271,7 360.016,7 327,7 327,24 360.016,24 362.271,24 447,24 447,7 			"/>
			<path fill="#FFFFFF" d="M430,55.523C430,43.141,423.703,37,410.599,37h-28.403C367.41,37,360,42.96,360,54.982V66h26V53.72
				c0-2.706,1.606-3.72,4.491-3.72h9.921c2.522,0,3.588,1.136,3.588,4.081v19.747l-24.797-0.09C366.34,73.737,360,78.998,360,89.516
				v19.837c0,5.351,1.659,9.579,4.967,13.064c3.605,3.849,8.575,5.582,14.887,5.582H437v-17h-7V55.523z M404,116h-12.517
				c-3.548,0-5.483-1.958-5.483-5.565V88.344c0-3.005,1.848-4.344,5.212-4.344H404V116z"/>
		</g>
	</g>
	<g>
		<path fill="#FFFFFF" d="M120.696,310.727H86.343v-41.478c0-5.951-3.126-8.928-9.377-8.928l-16.861-0.089v33.272h17.673v17.222
			H15.562v-17.222h17.673v-87.012H15.562v-17.222h75.29c14.546,0,21.82,6.704,21.82,20.107v26.148
			c0,12.204-3.908,18.936-11.721,20.196v0.543c7.874,0,11.812,4.718,11.812,14.156v23.083h7.934V310.727z M85.892,232.731v-21.009
			c0-3.486-1.744-5.23-5.229-5.23H60.104v36.337h17.132C83.007,242.83,85.892,239.464,85.892,232.731z"/>
		<g>
			<path fill="#FFFFFF" d="M179.486,219h-31.288c-6.192,0-11.22,1.59-15.247,4.477c-4.688,3.366-6.951,8.354-6.951,14.664v52.479
				c0,6.131,1.721,11.077,5.328,14.562c3.787,3.788,9.174,5.818,16.329,5.818h30.747c6.973,0,12.38-1.807,16.527-5.141
				c4.148-3.338,6.069-8.027,6.069-13.798v-52.657C201,226,194.032,219,179.486,219z M175,293.054c0,3.426-1.406,4.946-4.531,4.946
				h-13.435c-3.368,0-5.034-1.46-5.034-4.767V237.42c0-3.606,1.555-5.41,4.681-5.41l14.074-0.09c2.886,0,4.246,1.773,4.246,5.32
				V293.054z"/>
			<path fill="#FFFFFF" d="M279.99,224.107c-4.088-3.306-9.525-5.107-16.558-5.107h-30.658c-7.154,0-12.586,2.012-16.433,5.738
				c-3.606,3.547-5.342,8.534-5.342,14.666v12.713c0,9.858,4.561,15.84,13.818,17.944l29.086,6.672
				c4.147,0.962,6.096,4.146,6.096,9.557v6.764c0,3.307-1.498,4.946-4.863,4.946h-13.526c-3.065,0-4.611-1.759-4.611-5.307V281h-26
				v10.881c0,5.832,1.961,10.567,6.019,13.933c4.058,3.367,9.625,5.187,16.838,5.187h29.576c15.206,0,22.567-6.976,22.567-20.38
				v-12.806c0-9.977-4.988-16.107-15.207-18.395l-27.355-6.22c-4.328-0.962-6.438-3.607-6.438-7.936v-8.476
				c0-3.305,1.694-4.789,5.062-4.789h13.615c3.066,0,4.323,1.574,4.323,5.06V249h26v-11.039
				C286,232.131,284.076,227.414,279.99,224.107z"/>
			<path fill="#FFFFFF" d="M364.643,224.107c-4.088-3.306-9.87-5.107-16.905-5.107h-30.656c-7.154,0-12.738,2.012-16.585,5.738
				c-3.606,3.547-5.496,8.534-5.496,14.666v12.713c0,9.858,4.714,15.84,13.972,17.944l29.011,6.672
				c4.146,0.962,6.018,4.146,6.018,9.557v6.764c0,3.307-1.19,4.946-4.559,4.946h-13.523c-3.065,0-4.918-1.759-4.918-5.307V281h-26
				v10.881c0,5.832,2.115,10.567,6.173,13.933c4.056,3.367,9.777,5.187,16.989,5.187h29.575c15.209,0,23.263-6.976,23.263-20.38
				v-12.806c0-9.977-5.334-16.107-15.553-18.395l-27.684-6.22c-4.326-0.962-6.764-3.607-6.764-7.936v-8.476
				c0-3.305,2.002-4.789,5.369-4.789h13.615c3.066,0,5.016,1.574,5.016,5.06V249h26v-11.039
				C371,232.131,368.732,227.414,364.643,224.107z"/>
			<path fill="#FFFFFF" d="M449,237.871c0-12.383-6.377-18.871-19.48-18.871h-28.402C386.33,219,379,225.309,379,237.33V249h26
				v-12.932c0-2.706,1.527-4.068,4.413-4.068h9.918c2.524,0,3.669,1.484,3.669,4.428v19.747l-24.796-0.089
				c-12.863,0-19.204,5.261-19.204,15.777v19.838c0,5.35,1.62,9.904,4.927,13.392c3.606,3.847,8.534,5.907,14.846,5.907H456v-17h-7
				V237.871z M423,298h-12.595c-3.548,0-5.405-1.611-5.405-5.218V270.69c0-3.005,1.767-4.69,5.134-4.69H423V298z"/>
			<polygon fill="#FFFFFF" points="380.83,189 378.938,189 296.522,189 295.17,189 212.216,189 210.864,189 126,189 126,206 
				210.864,206 212.216,206 295.17,206 296.522,206 378.938,206 380.83,206 466,206 466,189 			"/>
		</g>
	</g>
	<g>
		<path fill="#FFFFFF" d="M111.908,391.728v22.18c0,9.438-4.449,15.569-13.344,18.396v0.089c8.896,2.586,13.344,8.745,13.344,18.485
			v23.533c0,5.771-2.044,10.323-6.131,13.66c-4.088,3.335-9.648,5.005-16.681,5.005H14.797v-17.222h17.673v-87.013H14.797v-17.221
			h75.29C104.634,371.621,111.908,378.323,111.908,391.728z M85.128,411.926v-17.854c0-3.486-1.474-5.23-4.418-5.23H59.34v34.806
			h16.321C81.973,423.647,85.128,419.739,85.128,411.926z M85.128,451.959c0-7.334-3.156-11.001-9.468-11.001H59.34v34.896h21.009
			c3.125,0,4.718-1.715,4.779-5.142V451.959z"/>
		<g>
			<path fill="#FFFFFF" d="M173.673,402h-31.289c-6.192,0-11.313,1.266-15.34,4.152c-4.688,3.367-7.044,8.026-7.044,14.338v52.479
				c0,6.131,1.814,10.902,5.421,14.387c3.787,3.788,9.268,5.644,16.422,5.644h30.747c6.973,0,12.287-1.632,16.434-4.967
				c4.148-3.337,5.976-7.852,5.976-13.622v-52.659C195,408.35,188.219,402,173.673,402z M169,475.403
				c0,3.426-1.219,5.597-4.345,5.597h-13.435c-3.367,0-5.221-2.11-5.221-5.417V419.77c0-3.605,1.648-5.41,4.774-5.41l14.027-0.092
				c2.886,0,4.199,1.774,4.199,5.322V475.403z"/>
			<polygon fill="#FFFFFF" points="266,417 275.832,417 260.596,433.14 248.241,417 259,417 259,402 205,402 205,417 216.592,417 
				242.921,451.461 219.658,476 205,476 205,493 246,493 246,476 238.052,476 251.218,462.205 261.677,476 252,476 252,493 306,493 
				306,476 293.686,476 268.892,443.885 294.409,417 306,417 306,402 266,402 			"/>
			<path fill="#FFFFFF" d="M367.804,402h-31.288c-6.192,0-11.38,1.266-15.404,4.152c-4.69,3.367-7.111,8.026-7.111,14.338v52.479
				c0,6.131,1.881,10.902,5.487,14.387c3.786,3.788,9.331,5.644,16.487,5.644h30.745c6.975,0,12.722-1.632,16.87-4.967
				c4.148-3.337,6.41-7.852,6.41-13.622V463h-27v12.403c0,3.426-1.089,5.597-4.213,5.597h-13.435c-3.368,0-5.353-2.11-5.353-5.417
				V454h50v-32.969C390,408.108,382.351,402,367.804,402z M363,444h-23v-24.23c0-3.605,1.715-5.41,4.842-5.41l13.993-0.092
				c2.886,0,4.165,1.774,4.165,5.322V444z"/>
			<polygon fill="#FFFFFF" points="399.901,372 398.549,372 318.211,372 314.152,372 206.403,372 205.051,372 120,372 120,389 
				205.051,389 206.403,389 314.152,389 318.211,389 398.549,389 399.901,389 485,389 485,372 			"/>
			<path fill="#FFFFFF" d="M458.512,401.557c-4.751,0-10.205,1.683-15.918,5.047c-4.449,2.586-7.594,5.261-10.594,8.027V402h-33v15
				h8v59h-8v17h42v-17h-9v-42.435c2-3.005,4.252-5.862,6.898-8.565c3.846-4.027,6.664-6.042,8.228-6.042
				c0.601,0,1.207,0.167,1.387,0.495c0.181,0.332,0.487,1.099,0.487,2.299V451h26v-34.387c0-4.568-1.436-8.221-4.41-10.956
				C467.613,402.924,463.62,401.557,458.512,401.557z"/>
		</g>
	</g>
</g>
</svg>
