<?xml version="1.0" encoding="utf-8"?>
<!-- Generator: Adobe Illustrator 15.0.0, SVG Export Plug-In . SVG Version: 6.00 Build 0)  -->
<!DOCTYPE svg PUBLIC "-//W3C//DTD SVG 1.1//EN" "http://www.w3.org/Graphics/SVG/1.1/DTD/svg11.dtd">
<svg version="1.1" id="Layer_1" xmlns="http://www.w3.org/2000/svg" xmlns:xlink="http://www.w3.org/1999/xlink" x="0px" y="0px"
	 width="500px" height="500px" viewBox="0 0 500 500" enable-background="new 0 0 500 500" xml:space="preserve">
<g>
	<g>
		<path fill="#FFFFFF" d="M150.983,60.923v13.254h-28.105v66.966h13.602v13.254H88.597v-13.254h13.601V74.177H85.96v12.699H73.816
			V60.923H150.983z"/>
		<path fill="#FFFFFF" d="M209.274,60.923v13.254H143.28V60.923H209.274z M201.363,124.697h-37.959v16.238
			c0,2.545,1.294,3.816,3.886,3.816h10.339c2.405,0,3.609-1.318,3.609-3.956v-9.438h20.125v8.674c0,4.441-1.596,7.946-4.789,10.513
			c-3.192,2.568-7.472,3.852-12.838,3.852h-23.664c-5.506,0-9.715-1.458-12.63-4.372c-2.776-2.682-4.164-6.384-4.164-11.103V98.535
			c0-4.857,1.804-8.581,5.413-11.172c3.099-2.221,7.032-3.331,11.797-3.331h24.08c11.195,0,16.793,4.974,16.793,14.92V124.697z
			 M181.239,116.716V97.841c0-2.729-1.11-4.094-3.331-4.094l-10.895,0.069c-2.406,0-3.608,1.388-3.608,4.164v18.737H181.239z"/>
		<path fill="#FFFFFF" d="M274.158,60.923v13.254h-65.925V60.923H274.158z M266.248,106.723h-19.986v-9.021
			c0-2.683-1.18-4.025-3.539-4.025h-10.479c-2.592,0-3.886,1.273-3.886,3.816v6.523c0,3.331,1.666,5.367,4.997,6.106l21.097,4.789
			c7.863,1.758,11.797,6.478,11.797,14.156v9.854c0,10.317-5.854,15.475-17.558,15.475h-22.761c-5.552,0-9.889-1.294-13.012-3.886
			c-3.123-2.59-4.684-6.129-4.684-10.617v-8.119h20.125v8.744c0,2.73,1.18,4.094,3.539,4.094h10.409c2.59,0,3.886-1.272,3.886-3.817
			v-5.205c0-4.164-1.596-6.615-4.789-7.355l-22.483-5.135c-7.125-1.619-10.687-6.222-10.687-13.81v-9.785
			c0-4.719,1.388-8.442,4.164-11.172c2.96-2.868,7.193-4.303,12.699-4.303h23.594c5.413,0,9.692,1.273,12.839,3.817
			c3.145,2.545,4.719,6.061,4.719,10.548V106.723z"/>
		<path fill="#FFFFFF" d="M329.049,95.829h-28.451l0.07,41.637c0,2.498,1.295,3.747,3.885,3.747h1.041c2.268,0,3.4-1.318,3.4-3.956
			v-7.009h20.055v9.785c0,4.441-1.572,7.946-4.719,10.513c-3.146,2.568-7.424,3.852-12.838,3.852h-14.225
			c-11.104,0-16.656-5.158-16.656-15.475V95.829h-6.66V84.031h6.453V60.923h20.264v23.108h28.381V95.829z M336.406,60.923v13.254
			h-27.412V60.923H336.406z"/>
		<path fill="#FFFFFF" d="M401.566,60.923v13.254H334.67V60.923H401.566z M393.934,154.397h-43.996
			c-4.857,0-8.676-1.48-11.451-4.441c-2.545-2.683-3.816-6.083-3.816-10.201v-15.267c0-8.095,4.949-12.144,14.85-12.144
			l19.154,0.069V97.216c0-2.266-0.973-3.4-2.914-3.4h-7.635c-2.221,0-3.33,1.041-3.33,3.123v9.784H334.67V97.91
			c0-9.252,5.691-13.879,17.07-13.879H373.6c10.086,0,15.129,4.766,15.129,14.295v42.816h5.205V154.397z M368.674,144.751v-24.635
			h-9.994c-2.59,0-3.885,1.157-3.885,3.47v17.001c0,2.776,1.363,4.164,4.094,4.164H368.674z"/>
	</g>
	<g>
		<path fill="#FFFFFF" d="M150.485,294.736h-26.439v-31.922c0-4.58-2.406-6.871-7.217-6.871l-12.977-0.068v25.607h13.602v13.254
			H69.571v-13.254h13.602v-66.967H69.571v-13.254h57.944c11.195,0,16.793,5.159,16.793,15.475v20.125
			c0,9.392-3.008,14.573-9.021,15.543v0.418c6.06,0,9.091,3.631,9.091,10.895v17.766h6.106V294.736z M123.699,234.709v-16.169
			c0-2.683-1.342-4.025-4.025-4.025h-15.822v27.966h13.185C121.479,242.482,123.699,239.891,123.699,234.709z"/>
		<path fill="#FFFFFF" d="M220.921,201.261v13.254h-66.48v-13.254H220.921z M212.524,239.845v40.526
			c0,4.441-1.596,7.945-4.789,10.514c-3.192,2.566-7.472,3.852-12.838,3.852h-23.664c-5.506,0-9.715-1.457-12.63-4.373
			c-2.776-2.682-4.164-6.383-4.164-11.102v-40.389c0-4.857,1.804-8.581,5.413-11.172c3.099-2.221,7.032-3.331,11.797-3.331h24.08
			C206.926,224.37,212.524,229.529,212.524,239.845z M192.4,281.135v-42.956c0-2.729-1.11-4.094-3.331-4.094l-10.895,0.069
			c-2.406,0-3.608,1.388-3.608,4.164v42.956c0,2.545,1.294,3.816,3.886,3.816h10.339C191.196,285.09,192.4,283.771,192.4,281.135z"
			/>
		<path fill="#FFFFFF" d="M285.805,201.261v13.254H219.88v-13.254H285.805z M277.895,247.062h-19.986v-9.021
			c0-2.683-1.18-4.025-3.539-4.025h-10.479c-2.592,0-3.886,1.273-3.886,3.816v6.523c0,3.331,1.666,5.367,4.997,6.107l21.097,4.787
			c7.863,1.76,11.797,6.479,11.797,14.156v9.855c0,10.316-5.854,15.475-17.557,15.475h-22.762c-5.552,0-9.889-1.295-13.012-3.887
			c-3.123-2.59-4.684-6.129-4.684-10.617v-8.119h20.125v8.744c0,2.73,1.18,4.094,3.539,4.094h10.41c2.59,0,3.887-1.271,3.887-3.816
			v-5.205c0-4.164-1.598-6.615-4.789-7.355l-22.484-5.135c-7.125-1.619-10.687-6.223-10.687-13.811v-9.784
			c0-4.719,1.388-8.442,4.164-11.172c2.96-2.868,7.193-4.303,12.699-4.303h23.595c5.412,0,9.691,1.273,12.838,3.817
			c3.145,2.545,4.719,6.061,4.719,10.548V247.062z"/>
		<path fill="#FFFFFF" d="M350.689,201.261v13.254h-65.926v-13.254H350.689z M342.777,247.062h-19.984v-9.021
			c0-2.683-1.18-4.025-3.539-4.025h-10.479c-2.592,0-3.887,1.273-3.887,3.816v6.523c0,3.331,1.666,5.367,4.996,6.107l21.096,4.787
			c7.865,1.76,11.797,6.479,11.797,14.156v9.855c0,10.316-5.852,15.475-17.557,15.475h-22.762c-5.551,0-9.889-1.295-13.01-3.887
			c-3.123-2.59-4.686-6.129-4.686-10.617v-8.119h20.125v8.744c0,2.73,1.18,4.094,3.539,4.094h10.408
			c2.592,0,3.887-1.271,3.887-3.816v-5.205c0-4.164-1.596-6.615-4.787-7.355l-22.484-5.135c-7.125-1.619-10.688-6.223-10.688-13.811
			v-9.784c0-4.719,1.389-8.442,4.164-11.172c2.961-2.868,7.193-4.303,12.699-4.303h23.594c5.414,0,9.691,1.273,12.838,3.817
			c3.146,2.545,4.719,6.061,4.719,10.548V247.062z"/>
		<path fill="#FFFFFF" d="M416.129,201.261v13.254h-66.896v-13.254H416.129z M408.494,294.736h-43.996
			c-4.857,0-8.674-1.48-11.449-4.441c-2.545-2.684-3.816-6.084-3.816-10.201v-15.268c0-8.094,4.949-12.143,14.85-12.143
			l19.152,0.068v-15.197c0-2.266-0.971-3.4-2.914-3.4h-7.633c-2.221,0-3.332,1.041-3.332,3.123v9.784h-20.123v-8.813
			c0-9.252,5.689-13.879,17.07-13.879h21.859c10.084,0,15.127,4.766,15.127,14.295v42.817h5.205V294.736z M383.234,285.09v-24.635
			h-9.992c-2.592,0-3.887,1.156-3.887,3.469v17.002c0,2.775,1.365,4.164,4.096,4.164H383.234z"/>
	</g>
	<g>
		<path fill="#FFFFFF" d="M143.721,357.076v17.07c0,7.264-3.424,11.982-10.27,14.158v0.068c6.846,1.99,10.27,6.73,10.27,14.227
			v18.111c0,4.441-1.573,7.945-4.719,10.514c-3.146,2.566-7.425,3.852-12.838,3.852H68.983v-13.254h13.602v-66.967H68.983v-13.254
			h57.944C138.123,341.602,143.721,346.76,143.721,357.076z M123.111,372.621v-13.74c0-2.684-1.134-4.025-3.4-4.025h-16.447v26.787
			h12.561C120.683,381.643,123.111,378.635,123.111,372.621z M123.111,403.432c0-5.645-2.429-8.467-7.287-8.467h-12.561v26.857
			h16.169c2.405,0,3.631-1.32,3.678-3.957V403.432z"/>
		<path fill="#FFFFFF" d="M216.447,341.602v13.254h-66.48v-13.254H216.447z M208.05,380.184v40.527
			c0,4.441-1.596,7.945-4.789,10.514c-3.192,2.566-7.472,3.852-12.838,3.852H166.76c-5.506,0-9.715-1.457-12.63-4.373
			c-2.776-2.682-4.164-6.383-4.164-11.102v-40.389c0-4.857,1.804-8.58,5.413-11.172c3.099-2.221,7.032-3.332,11.797-3.332h24.08
			C202.452,364.709,208.05,369.869,208.05,380.184z M187.926,421.475V378.52c0-2.73-1.11-4.096-3.331-4.096l-10.895,0.07
			c-2.406,0-3.608,1.389-3.608,4.164v42.955c0,2.545,1.294,3.816,3.886,3.816h10.339
			C186.722,425.43,187.926,424.111,187.926,421.475z"/>
		<path fill="#FFFFFF" d="M302.496,341.602v13.254h-87.09v-13.254H302.496z M293.268,435.076h-41.846v-13.186h7.564l-8.049-10.617
			l-10.132,10.617h5.898v13.186h-31.297v-13.186h11.242l17.904-18.875l-20.263-26.51h-8.882v-11.797h41.846v11.797h-8.605
			l9.508,12.422l11.727-12.422h-7.842v-11.797h31.229v11.797h-9.09l-19.639,20.68l19.082,24.705h9.646V435.076z"/>
		<path fill="#FFFFFF" d="M365.367,341.602v13.254h-65.994v-13.254H365.367z M357.457,405.375h-37.959v16.238
			c0,2.545,1.295,3.816,3.887,3.816h10.34c2.404,0,3.607-1.318,3.607-3.955v-9.438h20.125v8.674c0,4.441-1.596,7.945-4.789,10.514
			c-3.191,2.566-7.471,3.852-12.838,3.852h-23.662c-5.508,0-9.717-1.457-12.631-4.373c-2.775-2.682-4.164-6.383-4.164-11.102
			v-40.389c0-4.857,1.805-8.58,5.414-11.172c3.098-2.221,7.031-3.332,11.797-3.332h24.08c11.195,0,16.793,4.975,16.793,14.92
			V405.375z M337.332,397.395V378.52c0-2.73-1.109-4.096-3.33-4.096l-10.895,0.07c-2.406,0-3.609,1.389-3.609,4.164v18.736H337.332z
			"/>
		<path fill="#FFFFFF" d="M431.016,341.602v13.254h-66.689v-13.254H431.016z M423.242,403.016H402.91v-22.832
			c0-0.924-0.07-1.514-0.209-1.77c-0.139-0.252-0.439-0.381-0.902-0.381c-1.203,0-3.285,1.551-6.244,4.65
			c-2.037,2.08-3.748,4.279-5.135,6.592v32.547h6.453v13.254h-32.547v-13.254h6.662v-45.316h-6.662v-11.797h26.094v9.994
			c1.896-2.129,4.555-4.188,7.979-6.178c4.396-2.59,8.42-3.885,12.076-3.885c3.932,0,7.043,1.053,9.334,3.156
			c2.289,2.105,3.434,4.916,3.434,8.432V403.016z"/>
	</g>
</g>
<rect x="10" y="10" fill="none" stroke="#FFFFFF" stroke-width="12" stroke-miterlimit="10" width="480" height="480"/>
</svg>
